<svg xmlns="http://www.w3.org/2000/svg" viewBox="0 0 271.44 275.22"><defs><style>.cls-1,.cls-2{fill:none;stroke:#000;}.cls-1{stroke-miterlimit:10;}.cls-2{stroke-linecap:round;stroke-linejoin:round;}</style></defs><g id="Layer_1" data-name="Layer 1"><path id="outline" class="cls-1" d="M93.22,183.44h77.72l15.37-62.87c9.49-6.38,12.43,6.6,12.43,6.6l-14.69,56.27h27s1.95-58.09-1-59.92-10.17-2-10.17-2L194,116s7.69-3.64,8.14-8.87-2.49-24.35-2.49-24.35.65-1.09,1.63-2.89c3.34-6.1,10.57-20.39,9.76-28.29-1-10.25-2.35-19.81-17-31.87S158.74,7.91,147.84,8.14s-25.49,7.51-35,16.84a43.6,43.6,0,0,0-12.21,39.14c2.94,15.25,12.88,15.93,12.66,20.71s3.16,21.62,0,24.36S106.75,126,106.75,126l-13.53,2.88Z" transform="translate(-8.95 -7.57)"/><path id="beard" class="cls-1" d="M106.08,128c-10.25,24.88-.61,39.27,2.71,48.55s25.44-16.08,32.24-16.08,16.26,17.71,24.11,16.14,12.81-21.86,21.17-56c0,0,12.28-7.74,12.88-11.69s-6.63-8.35-8.44-13.13-.3-13.27-.3-13.27l-7.53-9.71s-2.49,22.68-12.73,30c-1.42,1,.34-1.38-4.3-7-5.07-6.13-11.11-9.25-19-8.49-7.08.68-9.15,2.36-14.17,6.07-7,5.18-4.43,10.57-6.32,5.24-2.64-7.44-5.62-21-4.67-21.55l-7.52,30.43Z" transform="translate(-8.95 -7.57)"/><path id="mouth" class="cls-1" d="M159.34,98.87c6.1,9.25-4.58,13.66-8,10.43-1.62-1.56,2.37-5.92,2.37-5.92s-3-2.39-8.66-1.48-6.33,3.87-6.33,3.87a16.24,16.24,0,0,1,2.9,4.83c.79,2.46-2.33,1.53-3.16,1.32-3.32-.84-4-8.16-.91-11.51,2.75-3,5.16-5.14,9.38-5.1a25.26,25.26,0,0,1,12.36,3.56,96.75,96.75,0,0,0-11.27-.61c-7.72.23-10.47,2.15-10.47,2.15" transform="translate(-8.95 -7.57)"/><path id="L.eye" class="cls-1" d="M125.63,72.32s3.1-.37,5.53-.76c4.44-.72,4.44-2.77,4.44-2.77s-4-2.19-5.34-1.82C128.56,67.43,125.63,72.32,125.63,72.32Z" transform="translate(-8.95 -7.57)"/><path id="R.eye" class="cls-1" d="M155.57,66.06s3.35-4.07,5-4.44c2-.45,5.3,1.55,7.46,3.41,1.19,1-3.17.7-6.81.69A41.17,41.17,0,0,0,155.57,66.06Z" transform="translate(-8.95 -7.57)"/><path id="head" class="cls-1" d="M182.92,72.77s-5-23-19.1-24.46-27.47.71-29.49,1.36C118.39,54.79,121.75,69.48,121.75,77" transform="translate(-8.95 -7.57)"/><path id="nose" class="cls-1" d="M147.32,60.71l.16,6.22h0c.37,1.34,2.89,3.67,4.09,6.57,1.67,4,2.33,3.93,3.46,4.92,1.91,1.68,2.28,5.55.1,5.83-2.6.35-2.94-1.53-2.94-1.53s0-1.08-2.09-.92a2.28,2.28,0,0,0-2,1.48A2.52,2.52,0,0,1,146.16,85l-2.13.39a1.93,1.93,0,0,1-1.78-.57,2.8,2.8,0,0,0-2.39-.92,1.83,1.83,0,0,0-1.72,1.35.72.72,0,0,1-.94.5h0a2.47,2.47,0,0,1-1.6-2.31v-1a2,2,0,0,1,.77-1.55,3.7,3.7,0,0,0,1.23-1.69c.57-1.6,1.22-5.82,3.17-8.65s.73-6,.68-9.06" transform="translate(-8.95 -7.57)"/></g><g id="Layer_2" data-name="Layer 2"><path d="M35.33,201.45q.86,2.4,1.8,4.93c.61,1.71,1.21,3.44,1.78,5.2s1.12,3.52,1.63,5.3,1,3.54,1.35,5.3.7,3.47.92,5.16a38.14,38.14,0,0,1,.34,4.91,50.92,50.92,0,0,1-.48,7.51c-.31,2.11-.6,3.84-.87,5.17A35.29,35.29,0,0,1,39,254.66,28.21,28.21,0,0,1,34.29,262a20.45,20.45,0,0,1-6.13,4.67,15.71,15.71,0,0,1-6.91,1.63A11.22,11.22,0,0,1,16,267.16a11.4,11.4,0,0,1-3.86-3.22,14.55,14.55,0,0,1-2.38-4.83,21.24,21.24,0,0,1-.81-6c0-.51,0-1.13.05-1.88a20.78,20.78,0,0,1,.3-2.48,26.66,26.66,0,0,1,.7-2.93,19.48,19.48,0,0,1,1.29-3.22,24.36,24.36,0,0,1,2.08-3.36,23,23,0,0,1,3-3.34,31.25,31.25,0,0,1,5.07-3.79,40.15,40.15,0,0,1,5.15-2.6,41.69,41.69,0,0,1,4.89-1.72c1.56-.44,3-.81,4.31-1.12a1.8,1.8,0,0,1,.5.08c.17.06.26.14.26.25a.44.44,0,0,1-.13.29.75.75,0,0,1-.36.25c-2,.63-3.82,1.26-5.49,1.88s-3.18,1.28-4.56,1.95a39.9,39.9,0,0,0-3.77,2.06,27.14,27.14,0,0,0-3.12,2.25,22.33,22.33,0,0,0-3.37,3.47,20.14,20.14,0,0,0-2.25,3.6,16,16,0,0,0-1.66,7,13,13,0,0,0,.78,4.76,9.1,9.1,0,0,0,2.11,3.27,8.17,8.17,0,0,0,3.07,1.88,11.09,11.09,0,0,0,3.7.61,13,13,0,0,0,4.93-1,18.39,18.39,0,0,0,4.45-2.57,23.73,23.73,0,0,0,3.79-3.71,26.77,26.77,0,0,0,2.93-4.38,24.81,24.81,0,0,0,1.89-4.6,15.44,15.44,0,0,0,.67-4.33,58.24,58.24,0,0,0-1.73-13.54A112.32,112.32,0,0,0,33.55,211h-.17a10.43,10.43,0,0,0-1,2.57,11,11,0,0,0-.31,2.5,7.08,7.08,0,0,0,.22,1.86,5,5,0,0,1,.22,1,1.82,1.82,0,0,1,0,.32.17.17,0,0,1-.19.16.4.4,0,0,1-.31-.21,2.32,2.32,0,0,1-.23-.44,17.82,17.82,0,0,1-.93-2.84,11.91,11.91,0,0,1-.36-2.77A10.16,10.16,0,0,1,31,209.9a24,24,0,0,1,1.28-3.1c.49-1,1-1.94,1.55-2.84s1-1.74,1.32-2.51Z" transform="translate(-8.95 -7.57)"/><path d="M46.65,205.33c.38-1.08.77-2.17,1.16-3.29s.8-2.28,1.27-3.5h.22A85,85,0,0,1,52.84,208a93.28,93.28,0,0,1,2.44,9.82c.63,3.34,1.34,6.48,2.12,9.4A78.66,78.66,0,0,0,59.87,235l-.54,2.27a2.52,2.52,0,0,1-1.35-.48A5.58,5.58,0,0,1,56.44,235a19.4,19.4,0,0,1-1.63-3.61,46.53,46.53,0,0,1-1.58-6,85.37,85.37,0,0,0-2.53-9.23Q49.05,211.19,46.65,205.33Z" transform="translate(-8.95 -7.57)"/><path d="M81.77,254.29a11.27,11.27,0,0,1-.47,1.65c-.23.62-.46,1.21-.72,1.77a14,14,0,0,1-.7,1.4c-.21.38-.36.57-.43.57a2.57,2.57,0,0,1-.9-.23,12.08,12.08,0,0,1-1.22-.59c-.44-.25-.88-.52-1.33-.82s-.87-.62-1.26-.94a9.89,9.89,0,0,1-1-.91,2.4,2.4,0,0,1-.51-.77,4.23,4.23,0,0,1,.31-.95c.2-.52.44-1.08.71-1.69s.55-1.18.84-1.7a3.1,3.1,0,0,1,.67-1,11.17,11.17,0,0,0,1.14,1.09,17.63,17.63,0,0,0,1.53,1.19c.56.39,1.13.75,1.7,1.09A9.94,9.94,0,0,0,81.77,254.29Zm2.81-5.83a11.37,11.37,0,0,0,2.73,2.45,16,16,0,0,0,3.31,1.7c-.38,1-.72,1.82-1,2.48s-.56,1.2-.77,1.61a7.61,7.61,0,0,1-.53.88c-.13.18-.23.27-.28.27a2.13,2.13,0,0,1-.68-.18,9.47,9.47,0,0,1-1-.5c-.39-.21-.81-.46-1.25-.74s-.86-.58-1.26-.89a9.94,9.94,0,0,1-1.05-1,3.58,3.58,0,0,1-.65-1,3.37,3.37,0,0,1,.26-.85c.17-.44.38-.93.62-1.47s.51-1.06.8-1.58A5.57,5.57,0,0,1,84.58,248.46Z" transform="translate(-8.95 -7.57)"/><path d="M53.83,217.77a11.21,11.21,0,0,1,1.27,1.76,6.22,6.22,0,0,1,.62,1.53c.05.23.14.61.27,1.13s.27,1.12.45,1.81.38,1.42.6,2.21.44,1.57.67,2.34a25.16,25.16,0,0,0,1.48,4A10.08,10.08,0,0,0,61,235.15a6.31,6.31,0,0,0,2.33,1.47,9.14,9.14,0,0,0,3,.46,5.92,5.92,0,0,0,2.17-.46,10.75,10.75,0,0,0,2.27-1.27,13.35,13.35,0,0,0,2.14-1.95,15.61,15.61,0,0,0,1.84-2.53,20.78,20.78,0,0,0,1.16-2.23c.36-.87.72-1.69,1.09-2.46a13.09,13.09,0,0,1,1.13-2,1.59,1.59,0,0,1,1.2-.8,1.32,1.32,0,0,1,.83.31c.26.21.58.49,1,.85s.85.82,1.41,1.32a22,22,0,0,0,2.1,1.67,9.76,9.76,0,0,1,2.66,2.55,4.6,4.6,0,0,1,.79,2.47v.7a3.93,3.93,0,0,1-1.36.64,6.44,6.44,0,0,1-1.44.17,4,4,0,0,1-1.65-.35,14.37,14.37,0,0,1-1.51-.78q-.75-.43-1.47-.78a3.12,3.12,0,0,0-1.41-.35,1.07,1.07,0,0,0-.87.49,7.49,7.49,0,0,0-.75,1.33c-.26.54-.52,1.18-.79,1.9s-.61,1.43-1,2.18A17.26,17.26,0,0,1,74.54,240a11.42,11.42,0,0,1-5.1,4.13,10.09,10.09,0,0,1-3.64.66,8.08,8.08,0,0,1-3.21-.65,9.22,9.22,0,0,1-2.87-1.94,14,14,0,0,1-2.45-3.28,22.83,22.83,0,0,1-1.93-4.65c-.36-1.22-.69-2.46-1-3.71s-.57-2.41-.78-3.49-.39-2-.51-2.83a12.42,12.42,0,0,1-.19-1.73A18.45,18.45,0,0,1,53,220a14.76,14.76,0,0,1,.48-2.26Z" transform="translate(-8.95 -7.57)"/><path d="M116.37,236.43a16.25,16.25,0,0,1-.63,1.63c-.28.64-.57,1.26-.88,1.85a15.9,15.9,0,0,1-.86,1.51c-.27.41-.47.62-.59.62a3.42,3.42,0,0,1-1.11-.38,15.47,15.47,0,0,1-1.76-1,14.28,14.28,0,0,1-1.85-1.4,5.48,5.48,0,0,1-1.32-1.66,2.3,2.3,0,0,1,.13-.49c.09-.27.21-.58.35-.94s.33-.76.51-1.19.37-.84.57-1.24.39-.75.58-1.07a3.86,3.86,0,0,1,.5-.68,20.36,20.36,0,0,0,1.7,1.56c.57.47,1.14.89,1.7,1.27a14.94,14.94,0,0,0,1.59,1,8.69,8.69,0,0,0,1.37.58Z" transform="translate(-8.95 -7.57)"/><path d="M80.75,224.4a9.89,9.89,0,0,0,2.87,2.17,7.17,7.17,0,0,0,3.22.74A13.61,13.61,0,0,0,92.42,226a29.72,29.72,0,0,0,5.91-3.61,23.36,23.36,0,0,1-2.1-4.93,19,19,0,0,1-.76-5.49,10.18,10.18,0,0,1,.45-3,8.08,8.08,0,0,1,1.36-2.64,8.67,8.67,0,0,1,2.31-2.05,10.49,10.49,0,0,1,3.27-1.29,27.73,27.73,0,0,1,4.17-.65c1.25-.09,2.4-.15,3.47-.16l3,0a14.72,14.72,0,0,0,2.86-.31,13.78,13.78,0,0,0,3-1,18.72,18.72,0,0,0,3.33-2l.32.16c-.29,1-.57,2-.86,2.88s-.6,1.71-.93,2.46a14.22,14.22,0,0,1-1.12,2.09,10.36,10.36,0,0,1-1.4,1.74l-1.08,1.08a36.29,36.29,0,0,1-2.69,4.4,48.11,48.11,0,0,1-3.35,4.23c-1.23,1.39-2.53,2.76-3.93,4.1s-2.85,2.68-4.38,4a16.28,16.28,0,0,1,.63,3.15,30.41,30.41,0,0,1,.18,3.33,1.17,1.17,0,0,1,0,.32c0,.11-.09.16-.18.16s-.16-.09-.21-.27c-.38-1-.75-1.94-1.12-2.76a18.25,18.25,0,0,0-1.2-2.25h-.16a46.66,46.66,0,0,1-7.6,5,15,15,0,0,1-6.81,1.77,7.62,7.62,0,0,1-3-.57,8.23,8.23,0,0,1-2.39-1.44,7,7,0,0,1-1.58-1.93,4.26,4.26,0,0,1-.56-2.05,5.74,5.74,0,0,1,.29-1.67,16.32,16.32,0,0,1,1-2.32Zm20-3.83c1-.75,2-1.59,3.11-2.49s2.18-1.87,3.25-2.89,2.13-2.08,3.16-3.18,2-2.25,2.89-3.41l-.11-.11c-.54-.06-1.17-.09-1.89-.1H109a22.53,22.53,0,0,0-5.41.55,12,12,0,0,0-3.55,1.43,5.73,5.73,0,0,0-1.94,2,4.51,4.51,0,0,0-.59,2.16,5.63,5.63,0,0,0,.85,2.57,29,29,0,0,0,2.28,3.47Z" transform="translate(-8.95 -7.57)"/><path d="M126.7,208.27a4,4,0,0,1,.13-.5c.08-.28.19-.59.32-.94a10.37,10.37,0,0,1,.45-1,4.34,4.34,0,0,1,.45-.76V205a4.74,4.74,0,0,1-2.1-1.06,2.37,2.37,0,0,1-.81-1.8,5.18,5.18,0,0,1,.1-.89,9.06,9.06,0,0,1,.39-1.43,5.2,5.2,0,0,1,.52-1.21,3.75,3.75,0,0,1,.84-1,4,4,0,0,1,1.18-.65,4.91,4.91,0,0,1,1.61-.24,4.7,4.7,0,0,1,2.32.47,1.39,1.39,0,0,1,.81,1.2,2.85,2.85,0,0,1-.22,1.11c-.16.37-.32.78-.48,1.21a.25.25,0,0,1-.22.16q-.21,0-.27-.27a1.22,1.22,0,0,0-.67-1,4.25,4.25,0,0,0-2-.35,3.35,3.35,0,0,0-1.81.4c-.41.26-.62.52-.62.79a1.32,1.32,0,0,0,.42,1,4.23,4.23,0,0,0,1,.73,6.09,6.09,0,0,0,1.17.47,3.78,3.78,0,0,0,1,.16,5.41,5.41,0,0,0,1.47-.22,12.39,12.39,0,0,0,1.62-.55c.55-.22,1.1-.47,1.64-.73s1.06-.51,1.53-.77a.72.72,0,0,1,.24-.08c.11,0,.16.06.16.17a.36.36,0,0,1-.13.24,3.62,3.62,0,0,0-.81,1.13c-.18.38-.32.67-.43.86a2.58,2.58,0,0,1-.82.93,8.73,8.73,0,0,1-1.3.75c-.49.23-1,.46-1.58.67s-1.1.49-1.63.77a9.85,9.85,0,0,0-1.5,1,5,5,0,0,0-1.16,1.31l-.25.29a.38.38,0,0,1-.29.14C126.8,208.65,126.7,208.52,126.7,208.27Z" transform="translate(-8.95 -7.57)"/><path d="M138.36,244.33a23,23,0,0,1-2,3.6,27.79,27.79,0,0,1-2.1,2.71,10.21,10.21,0,0,1-2.32,2,14.5,14.5,0,0,1-2.63,1.28,16.32,16.32,0,0,1-2.75.76c-.93.17-1.81.31-2.65.42l-2.33.29a15.17,15.17,0,0,0-1.83.3c-.65.16-1.24.32-1.76.49a5.37,5.37,0,0,1-1,.21,1.26,1.26,0,0,1-.33-.05.21.21,0,0,1-.16-.22c0-.11.13-.23.4-.38a5.32,5.32,0,0,0,.68-.43,99.66,99.66,0,0,0,10.75-6.87,28.28,28.28,0,0,0,6.19-6v-.11a10.19,10.19,0,0,1-2.69-2.36,14.47,14.47,0,0,1-2-3.25,18.14,18.14,0,0,1-1.23-3.92,22.77,22.77,0,0,1-.41-4.44,30.94,30.94,0,0,1,1.72-9.67,56.94,56.94,0,0,1,5.5-11.42h.27c.61,1.4,1.32,3,2.11,4.75s1.51,3.62,2.21,5.54a54.69,54.69,0,0,1,1.77,5.81,24,24,0,0,1,.71,5.59,25.91,25.91,0,0,1-1.62,8.52l.22.21a3.41,3.41,0,0,1,3.61,2.86,5,5,0,0,1-.82,1.84,4.46,4.46,0,0,1-1.35,1.17,5.62,5.62,0,0,1-1.81.63,11.38,11.38,0,0,1-2.17.19Zm0-6.9a8,8,0,0,0,.74-1.76,8.59,8.59,0,0,0,.28-2.4,18.44,18.44,0,0,0-.31-3.16,34.45,34.45,0,0,0-1-4.06c-.46-1.51-1-3.19-1.79-5s-1.63-3.85-2.67-6h-.22a35.26,35.26,0,0,0-2.32,6,19.74,19.74,0,0,0-.7,4.84,14.25,14.25,0,0,0,.64,4.37,12.64,12.64,0,0,0,1.71,3.56,10,10,0,0,0,2.48,2.51,7.21,7.21,0,0,0,2.94,1.22Z" transform="translate(-8.95 -7.57)"/><path d="M146.07,194.38q.84,2.26,1.75,4.59c.61,1.56,1.22,3.13,1.81,4.7s1.16,3.15,1.71,4.71,1,3.1,1.43,4.61.73,3,1,4.41a23.86,23.86,0,0,1,.37,4.11,27.39,27.39,0,0,1-.25,3.73q-.24,1.86-.45,3.72a28.77,28.77,0,0,1-1.65,7.28,16,16,0,0,1-2.72,4.69,12,12,0,0,1-3.86,2.88,10,10,0,0,1-4.18.95,8.16,8.16,0,0,1-1.28-.1,4.89,4.89,0,0,1-1.15-.33,3.41,3.41,0,0,1-1.6-1.58,5.15,5.15,0,0,1-.5-2.35,4.44,4.44,0,0,1,1.63-2,5.26,5.26,0,0,1,3-.75,7.93,7.93,0,0,0,2.18-.32,11.42,11.42,0,0,0,2.29-.92,11.66,11.66,0,0,0,2.16-1.45,10.77,10.77,0,0,0,1.81-1.95,9.38,9.38,0,0,0,1.24-2.37,8.06,8.06,0,0,0,.46-2.75,37.48,37.48,0,0,0-1.7-9.86,115.61,115.61,0,0,0-5.26-14.09h-.16a10,10,0,0,0-1,2.58,10.35,10.35,0,0,0-.31,2.49,6.58,6.58,0,0,0,.22,1.86,5,5,0,0,1,.21,1,1.66,1.66,0,0,1,0,.32.16.16,0,0,1-.18.16.39.39,0,0,1-.31-.21,1.8,1.8,0,0,1-.23-.43,18.28,18.28,0,0,1-.93-2.85,11.42,11.42,0,0,1-.37-2.76,10.12,10.12,0,0,1,.54-3.25,24.91,24.91,0,0,1,1.28-3.1c.5-1,1-2,1.54-2.85s1-1.73,1.33-2.51Z" transform="translate(-8.95 -7.57)"/><path d="M159.39,239.32a.5.5,0,0,1,.19-.38,4.47,4.47,0,0,1,.41-.32q1.26-1.08,2.64-2.31a18.73,18.73,0,0,0,2.51-2.74A14.46,14.46,0,0,0,167,230.2a11.16,11.16,0,0,0,.75-4.21,25.68,25.68,0,0,0-.36-4,43.22,43.22,0,0,0-1.12-5q-.76-2.79-1.95-6.19c-.79-2.26-1.74-4.75-2.83-7.44h-.22a10.46,10.46,0,0,0-1,2.6,11.38,11.38,0,0,0-.28,2.52,7,7,0,0,0,.16,1.59,6,6,0,0,1,.16.89,1.84,1.84,0,0,1,0,.33.17.17,0,0,1-.18.16.43.43,0,0,1-.37-.24,3.66,3.66,0,0,1-.28-.62,18.49,18.49,0,0,1-.72-2.58,14.43,14.43,0,0,1-.25-2.82,8.92,8.92,0,0,1,.43-2.75,20.13,20.13,0,0,1,1.12-2.75c.46-.94,1-1.9,1.55-2.89s1.1-2,1.64-3.15h.22c.77,2.25,1.62,4.56,2.54,7s1.77,4.82,2.56,7.24,1.45,4.8,2,7.16a30.93,30.93,0,0,1,.8,6.8c0,.82,0,1.59-.08,2.3s-.14,1.4-.25,2.06a19.78,19.78,0,0,1-.42,1.95c-.17.63-.37,1.27-.6,1.94a14.38,14.38,0,0,1-2.86,5,13.48,13.48,0,0,1-5,3.55,10.77,10.77,0,0,0-1.48.65,2.3,2.3,0,0,1-.84.32l-.27,0C159.43,239.49,159.39,239.42,159.39,239.32Z" transform="translate(-8.95 -7.57)"/><path d="M211.72,208.78a2.09,2.09,0,0,0,.47,1.41,3.7,3.7,0,0,0,1.25.89,8.56,8.56,0,0,0,1.79.55c.66.13,1.34.27,2,.39s1.36.28,2,.45a7.76,7.76,0,0,1,1.78.68,3.86,3.86,0,0,1,1.26,1.1,2.91,2.91,0,0,1,.47,1.71,6.15,6.15,0,0,1-.21,1.42,15.35,15.35,0,0,1-.56,1.82,21.23,21.23,0,0,1-.89,2,16.52,16.52,0,0,1-1.2,2,1.15,1.15,0,0,1-.41.38,2.5,2.5,0,0,1-.59.23,8.21,8.21,0,0,1-.84.17l-1.13.25a58.36,58.36,0,0,0-10.22,3.27,27.42,27.42,0,0,0-7.15,4.41,16.09,16.09,0,0,0-4.19,5.68,17.7,17.7,0,0,0-1.36,7.08,38.64,38.64,0,0,0,.4,5.44c.27,1.89.63,3.82,1.08,5.77s1,3.89,1.54,5.84,1.16,3.81,1.75,5.62,1.18,3.52,1.75,5.14,1.09,3.08,1.54,4.4.81,2.43,1.08,3.37a8.25,8.25,0,0,1,.4,2.07c0,.09,0,.19,0,.29s-.08.14-.19.14-.47-.37-.93-1.13a22.2,22.2,0,0,1-1.5-3.13q-2.16-5.25-3.84-10.19T194.24,259c-.77-3-1.36-5.73-1.76-8.31a44.51,44.51,0,0,1-.61-6.95,33,33,0,0,1,.51-5.91,31.24,31.24,0,0,1,1.48-5.37,19,19,0,0,1,2.23-4.23,19.82,19.82,0,0,1,3.42-3.72,25.48,25.48,0,0,1,4.77-3.16,38.6,38.6,0,0,1,6.2-2.54l.05-.21a4,4,0,0,1-1.41-1.49,5,5,0,0,1-.53-2.45,14.5,14.5,0,0,1,.22-2.43,17.88,17.88,0,0,1,.75-2.91,19.79,19.79,0,0,1,1.13-2.68c.35-.62.65-.93.92-.93s.41.06.46.2a1.23,1.23,0,0,1,.08.44,3.44,3.44,0,0,1-.21,1.2A3.55,3.55,0,0,0,211.72,208.78Z" transform="translate(-8.95 -7.57)"/><path d="M220.78,202.91a6.09,6.09,0,0,1-2.56-.54,5.07,5.07,0,0,1-2.08-1.89H216a12.25,12.25,0,0,1-1,3.14,27.23,27.23,0,0,1-1.52,2.78c-.55.87-1.09,1.7-1.63,2.49a14.44,14.44,0,0,0-1.3,2.38c-.14.32-.3.63-.47.94a.75.75,0,0,1-.66.46.28.28,0,0,1-.22-.11.89.89,0,0,1-.12-.26.92.92,0,0,1,0-.29v-.26a5.52,5.52,0,0,1,.14-.92c.09-.43.21-.92.37-1.48s.36-1.15.58-1.78.48-1.25.75-1.86c.18-.41.42-.93.72-1.54s.61-1.24.91-1.88.55-1.28.78-1.88a4.6,4.6,0,0,0,.34-1.5,13,13,0,0,0-.37-2.61c-.24-1.14-.54-2.42-.9-3.85s-.75-2.95-1.16-4.57-.8-3.18-1.16-4.76-.66-3.07-.9-4.49a21.77,21.77,0,0,1-.37-3.72,11,11,0,0,1,.61-3.29,26.33,26.33,0,0,1,2-4.48l.27.16a2.42,2.42,0,0,0-.05.57v.62a26.5,26.5,0,0,0,.32,3.86c.22,1.47.51,3.08.89,4.84s.81,3.62,1.3,5.59,1,4,1.53,6.1a36.07,36.07,0,0,0,1.8,5.39,15,15,0,0,0,2,3.56,5.85,5.85,0,0,1,1,2.19,9.56,9.56,0,0,1,.31,2.35Z" transform="translate(-8.95 -7.57)"/><path d="M255.41,187.69a9.84,9.84,0,0,1-1.72,2.34,10.19,10.19,0,0,1-2.17,1.63,10,10,0,0,1-2.49,1,11.74,11.74,0,0,1-2.63.31c-.43,0-.88,0-1.34-.06a6.38,6.38,0,0,1-1.41-.27q-4.69,7.53-9.23,11.05t-8.95,3.52a11.65,11.65,0,0,1-3.78-.6,9.7,9.7,0,0,1-3.24-1.84,12.53,12.53,0,0,1-2.63-3.24,22.13,22.13,0,0,1-2-4.79c-.36-1.22-.69-2.46-1-3.71s-.56-2.41-.78-3.49-.38-2-.51-2.83a12.42,12.42,0,0,1-.19-1.73,20.26,20.26,0,0,1,.16-2.48,14,14,0,0,1,.49-2.27h.32a11.25,11.25,0,0,1,1.27,1.77,5.85,5.85,0,0,1,.62,1.53c.05.23.14.61.27,1.13s.28,1.12.46,1.8.38,1.43.59,2.22.44,1.57.68,2.34a22.83,22.83,0,0,0,1.49,4,9.82,9.82,0,0,0,1.88,2.65,6.49,6.49,0,0,0,2.42,1.47,10.35,10.35,0,0,0,3.21.46,11.45,11.45,0,0,0,6.26-2.18,33.85,33.85,0,0,0,7.07-6.72v-.22a12.87,12.87,0,0,1-1.57-1.24c-.52-.49-1-1-1.55-1.39a11,11,0,0,0-1.55-1.12,3.16,3.16,0,0,0-1.59-.46,4.37,4.37,0,0,0-1.58.34,13.17,13.17,0,0,0-1.92,1l-.28-.22c.29-.66.55-1.29.77-1.87a15.87,15.87,0,0,0,.57-1.73,12.93,12.93,0,0,0,.34-1.71,15,15,0,0,0,.11-1.81,46.35,46.35,0,0,1,7.09-3.55,17.23,17.23,0,0,1,6.12-1.25,6.34,6.34,0,0,1,1.7.23,4.22,4.22,0,0,1,1.43.69,3.25,3.25,0,0,1,1,1.16,3.39,3.39,0,0,1,.37,1.64,13,13,0,0,1-.37,2.85q-.36,1.64-.93,3.63l.17.21a5.54,5.54,0,0,0,1,.22l1.53.21,1.8.3c.64.11,1.24.22,1.8.34a12.06,12.06,0,0,1,1.53.4A2.78,2.78,0,0,1,255.41,187.69Z" transform="translate(-8.95 -7.57)"/><path d="M238.74,189.61a8.87,8.87,0,0,1,.89-1.55,7.54,7.54,0,0,1,1.2-1.31,6.5,6.5,0,0,1,1.39-.91,3.49,3.49,0,0,1,1.43-.33,16.31,16.31,0,0,1,1.84.11c.7.07,1.35.1,1.94.1A13.85,13.85,0,0,0,253.9,184a24,24,0,0,0,6.69-5.61c.67-.78,1.29-1.54,1.86-2.3s1.11-1.45,1.65-2.1a16.12,16.12,0,0,1,1.58-1.67,4.69,4.69,0,0,1,1.6-1l.05-.21a3.71,3.71,0,0,1-.53-1.26,5.94,5.94,0,0,1-.17-1.39,8.62,8.62,0,0,1,.62-3,20.16,20.16,0,0,1,2-3.74,1.06,1.06,0,0,1,.28.15.74.74,0,0,1,.21.39,4.86,4.86,0,0,0,1.39,2.3,9.56,9.56,0,0,0,2.14,1.44,18.81,18.81,0,0,0,2.46,1,17,17,0,0,1,2.3.92,5.89,5.89,0,0,1,1.71,1.24,2.71,2.71,0,0,1,.68,1.92,7.82,7.82,0,0,1-.32,2.09,12.92,12.92,0,0,1-.9,2.22,12.14,12.14,0,0,1-1.37,2.12A10.57,10.57,0,0,1,276,179.3a23.63,23.63,0,0,0-3.52-1.14,14.25,14.25,0,0,0-3.28-.42,5.65,5.65,0,0,0-2.09.36,6.19,6.19,0,0,0-1.74,1.12,12.3,12.3,0,0,0-1.68,1.93c-.57.78-1.2,1.72-1.88,2.79a23.51,23.51,0,0,1-2.79,3.71,17.12,17.12,0,0,1-3.34,2.83,15.62,15.62,0,0,1-3.93,1.82,15.14,15.14,0,0,1-4.56.65,21.35,21.35,0,0,1-2.71-.16,12.09,12.09,0,0,1-2.37-.54,7.15,7.15,0,0,1-2-1A5.72,5.72,0,0,1,238.74,189.61Z" transform="translate(-8.95 -7.57)"/><path class="cls-2" d="M159.39,206.05c4.44,35.76,21.94-13.63,24.66-22.61" transform="translate(-8.95 -7.57)"/><path class="cls-2" d="M27.34,230.63C66,217.91,93.71,203.8,93.22,183.44" transform="translate(-8.95 -7.57)"/></g></svg>